<svg width="3072" height="3675" viewBox="0 0 3072 3675" version="2" xmlns="http://www.w3.org/2000/svg" xmlns:xlink="http://www.w3.org/1999/xlink" xmlns:figma="http://www.figma.com/figma/ns">

  <g transform="matrix(3 0 0 3 618 1092)" figma:type="canvas">
    <mask id="a">
      <path d="M-206-364H818V861H-206V-364z" fill="#FFF"/>
    </mask>
    <g style="mix-blend-mode:normal" mask="url(#a)" figma:type="frame">
      <use xlink:href="#b" transform="translate(170.5 -56)" fill="#56CCF2" style="mix-blend-mode:normal" figma:type="rounded-rectangle"/>
      <use xlink:href="#c" transform="matrix(.0043 -1 1 0 -34.5 -218)" style="mix-blend-mode:normal" figma:type="line"/>
      <use xlink:href="#d" transform="rotate(180 -17.25 -182)" style="mix-blend-mode:normal" figma:type="line"/>
      <use xlink:href="#b" transform="translate(170.5 246)" fill="#56CCF2" style="mix-blend-mode:normal" figma:type="rounded-rectangle"/>
      <use xlink:href="#b" transform="translate(-150.5 31)" fill="#4CAFA9" style="mix-blend-mode:normal" figma:type="rounded-rectangle"/>
      <use xlink:href="#b" transform="translate(170.5 95)" fill="#4CAFA9" style="mix-blend-mode:normal" figma:type="rounded-rectangle"/>
      <use xlink:href="#e" transform="translate(-150.5 400)" fill="#4CAF50" style="mix-blend-mode:normal" figma:type="rounded-rectangle"/>
      <use xlink:href="#e" transform="translate(-149.5 249)" fill="#4CAF50" style="mix-blend-mode:normal" figma:type="rounded-rectangle"/>
      <use xlink:href="#f" transform="rotate(180 20.25 275.5)" style="mix-blend-mode:normal" figma:type="line"/>
      <use xlink:href="#g" transform="rotate(180 433.75 353.5)" style="mix-blend-mode:normal" figma:type="line"/>
      <use xlink:href="#h" transform="rotate(-102 126.87 -4.965)" style="mix-blend-mode:normal" figma:type="line"/>
      <g style="mix-blend-mode:normal" figma:type="group">
        <use xlink:href="#i" transform="translate(777.5 594)" fill="#DADADA" style="mix-blend-mode:normal" figma:type="rounded-rectangle"/>
        <use xlink:href="#i" transform="translate(777.5 644.26)" fill="#DADADA" style="mix-blend-mode:normal" figma:type="rounded-rectangle"/>
      </g>
      <use xlink:href="#j" transform="translate(-132.5 639)" fill="#FFF" style="mix-blend-mode:normal" figma:type="text"/>
      <use xlink:href="#k" transform="translate(-206 707)" fill="#26A69A" style="mix-blend-mode:normal" figma:type="vector"/>
      <use xlink:href="#l" transform="rotate(90 -315.25 235.75)" style="mix-blend-mode:normal" figma:type="line"/>
      <use xlink:href="#m" transform="rotate(90 -356.75 277.25)" style="mix-blend-mode:normal" figma:type="line"/>
      <use xlink:href="#n" transform="rotate(90 -244.75 462.25)" style="mix-blend-mode:normal" figma:type="line"/>
      <use xlink:href="#o" transform="translate(170.5 400)" fill="#4CAF50" style="mix-blend-mode:normal" figma:type="rounded-rectangle"/>
      <use xlink:href="#b" transform="translate(170.5 400)" fill="#4CAF50" style="mix-blend-mode:normal" figma:type="rounded-rectangle"/>
      <use xlink:href="#p" transform="translate(605.5 707)" fill="#EB5757" style="mix-blend-mode:normal" figma:type="rounded-rectangle"/>
      <g style="mix-blend-mode:normal" figma:type="group">
        <use xlink:href="#q" transform="rotate(-90 67.25 146.75)" fill-opacity=".5" style="mix-blend-mode:normal" figma:type="line"/>
        <use xlink:href="#q" transform="rotate(-90 61.25 152.75)" fill-opacity=".6" style="mix-blend-mode:normal" figma:type="line"/>
        <use xlink:href="#q" transform="rotate(-90 55.25 158.75)" fill-opacity=".7" style="mix-blend-mode:normal" figma:type="line"/>
        <use xlink:href="#q" transform="rotate(-90 49.25 164.75)" fill-opacity=".8" style="mix-blend-mode:normal" figma:type="line"/>
        <use xlink:href="#r" transform="matrix(.01723 -.99985 1 0 -127.5 214)" fill-opacity=".9" style="mix-blend-mode:normal" figma:type="line"/>
        <use xlink:href="#s" transform="matrix(.03445 -.9994 1 0 -139.5 214)" style="mix-blend-mode:normal" figma:type="line"/>
      </g>
      <g style="mix-blend-mode:normal" figma:type="group">
        <use xlink:href="#q" transform="rotate(-90 83.25 162.75)" style="mix-blend-mode:normal" figma:type="line"/>
        <use xlink:href="#r" transform="matrix(.01723 -.99985 1 0 -127.5 246)" fill-opacity=".6" style="mix-blend-mode:normal" figma:type="line"/>
        <use xlink:href="#s" transform="matrix(.03445 -.9994 1 0 -139.5 246)" fill-opacity=".5" style="mix-blend-mode:normal" figma:type="line"/>
        <use xlink:href="#q" transform="rotate(-90 65.25 180.75)" fill-opacity=".7" style="mix-blend-mode:normal" figma:type="line"/>
        <use xlink:href="#q" transform="rotate(-90 71.25 174.75)" fill-opacity=".8" style="mix-blend-mode:normal" figma:type="line"/>
        <use xlink:href="#q" transform="rotate(-90 77.25 168.75)" fill-opacity=".9" style="mix-blend-mode:normal" figma:type="line"/>
      </g>
      <g style="mix-blend-mode:normal" figma:type="group">
        <use xlink:href="#t" transform="matrix(-1 0 0 -1 605.485 808.5)" style="mix-blend-mode:normal" figma:type="line"/>
        <use xlink:href="#u" transform="matrix(-1 0 -.02553 -.99967 605.49 859.075)" fill-opacity=".6" style="mix-blend-mode:normal" figma:type="line"/>
        <use xlink:href="#t" transform="matrix(-1 0 0 -1 605.485 846.65)" fill-opacity=".7" style="mix-blend-mode:normal" figma:type="line"/>
        <use xlink:href="#t" transform="matrix(-1 0 0 -1 605.485 833.934)" fill-opacity=".8" style="mix-blend-mode:normal" figma:type="line"/>
        <use xlink:href="#t" transform="matrix(-1 0 0 -1 605.485 821.217)" fill-opacity=".9" style="mix-blend-mode:normal" figma:type="line"/>
      </g>
      <g style="mix-blend-mode:normal" figma:type="group">
        <use xlink:href="#v" transform="matrix(-1 0 0 -1 555.485 808.5)" style="mix-blend-mode:normal" figma:type="line"/>
        <use xlink:href="#v" transform="matrix(-1 0 0 -1 555.485 853.128)" fill-opacity=".7" style="mix-blend-mode:normal" figma:type="line"/>
        <use xlink:href="#v" transform="matrix(-1 0 0 -1 555.485 838.252)" fill-opacity=".8" style="mix-blend-mode:normal" figma:type="line"/>
        <use xlink:href="#v" transform="matrix(-1 0 0 -1 555.485 823.376)" fill-opacity=".9" style="mix-blend-mode:normal" figma:type="line"/>
      </g>
      <use xlink:href="#w" transform="matrix(-.0007 1 1 .0007 605.5 752)" style="mix-blend-mode:normal" figma:type="line"/>
      <use xlink:href="#x" transform="matrix(-.0031 1 1 .0031 370.5 707)" style="mix-blend-mode:normal" figma:type="line"/>
      <use xlink:href="#n" transform="rotate(90 -357.25 349.75)" style="mix-blend-mode:normal" figma:type="line"/>
      <use xlink:href="#y" transform="rotate(90 194.25 -23.75)" style="mix-blend-mode:normal" figma:type="line"/>
      <use xlink:href="#z" transform="rotate(42 368.127 112.24)" style="mix-blend-mode:normal" figma:type="line"/>
      <use xlink:href="#A" transform="matrix(-1 .0043 0 -1 170.5 -218)" style="mix-blend-mode:normal" figma:type="line"/>
      <use xlink:href="#B" transform="translate(-54.5 -147)" fill="#DADADA" style="mix-blend-mode:normal" figma:type="vector"/>
      <use xlink:href="#C" transform="translate(-165.735 -276)" fill="#DADADA" style="mix-blend-mode:normal" figma:type="vector"/>
      <use xlink:href="#D" transform="translate(349.5 551)" style="mix-blend-mode:normal" figma:type="line"/>
      <g style="mix-blend-mode:normal" figma:type="group">
        <use xlink:href="#i" transform="translate(-68.5 -61.898)" fill="#DADADA" style="mix-blend-mode:normal" figma:type="rounded-rectangle"/>
        <use xlink:href="#i" transform="translate(-68.5 -11.64)" fill="#DADADA" style="mix-blend-mode:normal" figma:type="rounded-rectangle"/>
      </g>
      <g style="mix-blend-mode:normal" figma:type="group">
        <use xlink:href="#E" transform="rotate(-91 -152.4 44.598)" fill="#DADADA" style="mix-blend-mode:normal" figma:type="rounded-rectangle"/>
        <use xlink:href="#F" transform="rotate(-91 -133.38 25.332)" fill="#DADADA" style="mix-blend-mode:normal" figma:type="rounded-rectangle"/>
      </g>
    </g>
  </g>
  <defs>
    <path id="b" d="M0 0h179v151H0V0z"/>
    <path id="c" d="M.5-1H0v1h.5v-1zm145 1h.5v-1h-.5v1zM.5 0h145v-1H.5v1z"/>
    <path id="d" d="M.5-1H0v1h.5v-1zm114 1h.5v-1h-.5v1zM.5 0h114v-1H.5v1z"/>
    <path id="e" d="M0 0h190v151H0V0z"/>
    <path id="f" d="M.5-1H0v1h.5v-1zm190 1h.5v-1h-.5v1zM.5 0h190v-1H.5v1z"/>
    <path id="g" d="M.5-1H0v1h.5v-1zm173 1h.5v-1h-.5v1zM.5 0h173v-1H.5v1z"/>
    <path id="h" d="M.5-1H0v1h.5v-1zm18.416 1h.5v-1h-.5v1zM.5 0h18.416v-1H.5v1z"/>
    <path id="i" d="M0 0h34v39.74H0V0z"/>
    <path id="j" d="M12.533 14.818V36.21H8.28V14.82H.315v-3.814h20.198v3.814h-7.98z"/>
    <path id="k" d="M0 0h712v145H0V0z"/>
    <path id="l" d="M.5-1H0v1h.5v-1zm92 1h.5v-1h-.5v1zM.5 0h92v-1H.5v1z"/>
    <path id="m" d="M.5-1H0v1h.5v-1zm72 1h.5v-1h-.5v1zM.5 0h72v-1H.5v1z"/>
    <path id="n" d="M.5-1H0v1h.5v-1zm139 1h.5v-1h-.5v1zM.5 0h139v-1H.5v1z"/>
    <path id="o" d="M0 0h162v151H0V0z"/>
    <path id="p" d="M0 0h162v146H0V0z"/>
    <path id="q" d="M6-12H0V0h6v-12zM26 0h6v-12h-6V0zM6 0h20v-12H6V0z"/>
    <path id="r" d="M6-12H0V0h6v-12zM26.005 0h6v-12h-6V0zM6 0h20.005v-12H6V0z"/>
    <path id="s" d="M6-12H0V0h6v-12zM26.02 0h6v-12h-6V0zM6 0h20.02v-12H6V0z"/>
    <path id="t" d="M7.5-15H0V0h7.5v-15zM42.47 0h7.5v-15h-7.5V0zM7.5 0h34.97v-15H7.5V0z"/>
    <path id="u" d="M7.5-15H0V0h7.5v-15zM42.478 0h7.5v-15h-7.5V0zM7.5 0h34.978v-15H7.5V0z"/>
    <path id="v" d="M7.5-15H0V0h7.5v-15zM42.008 0h7.5v-15h-7.5V0zM7.5 0h34.508v-15H7.5V0z"/>
    <path id="w" d="M.5-1H0v1h.5v-1zm21 1h.5v-1h-.5v1zM.5 0h21v-1H.5v1z"/>
    <path id="x" d="M.5-1H0v1h.5v-1zm160 1h.5v-1h-.5v1zM.5 0h160v-1H.5v1z"/>
    <path id="y" d="M.5-1H0v1h.5v-1zm169 1h.5v-1h-.5v1zM.5 0h169v-1H.5v1z"/>
    <path id="z" d="M.5-1H0v1h.5v-1zm240.423 1h.5v-1h-.5v1zM.5 0h240.423v-1H.5v1z"/>
    <path id="A" d="M.5-1H0v1h.5v-1zm204.002 1h.5v-1h-.5v1zM.5 0h204.002v-1H.5v1z"/>
    <path id="B" d="M0 0h81v70H0V0z"/>
    <path id="C" d="M0 0h81v58H0V0z"/>
    <path id="D" d="M.5-1H0v1h.5v-1zm523 1h.5v-1h-.5v1zM.5 0h523v-1H.5v1z"/>
    <path id="E" d="M0 0h34v30.468H0V0z"/>
    <path id="F" d="M0 0h34v30.468H0V0z"/>
  </defs>
</svg>
